<?xml version="1.0" encoding="UTF-8" standalone="no"?>
<!DOCTYPE svg PUBLIC "-//W3C//DTD SVG 1.1//EN"
 "http://www.w3.org/Graphics/SVG/1.1/DTD/svg11.dtd">
<!-- Generated by graphviz version 2.49.3 (0)
 -->
<!-- Title: BDD Pages: 1 -->
<svg width="166pt" height="372pt"
 viewBox="0.00 0.00 165.55 372.48" xmlns="http://www.w3.org/2000/svg" xmlns:xlink="http://www.w3.org/1999/xlink">
<g id="graph0" class="graph" transform="scale(1 1) rotate(0) translate(4 368.48)">
<title>BDD</title>
<polygon fill="white" stroke="transparent" points="-4,4 -4,-368.48 161.55,-368.48 161.55,4 -4,4"/>
<!-- n140592673068880 -->
<g id="node1" class="node">
<title>n140592673068880</title>
<polygon fill="none" stroke="black" points="85.55,-36 31.55,-36 31.55,0 85.55,0 85.55,-36"/>
<text text-anchor="middle" x="58.55" y="-14.3" font-family="Times,serif" font-size="14.00">0</text>
</g>
<!-- n140592673067728 -->
<g id="node2" class="node">
<title>n140592673067728</title>
<polygon fill="none" stroke="black" points="157.55,-36 103.55,-36 103.55,0 157.55,0 157.55,-36"/>
<text text-anchor="middle" x="130.55" y="-14.3" font-family="Times,serif" font-size="14.00">1</text>
</g>
<!-- n140592532423056 -->
<g id="node3" class="node">
<title>n140592532423056</title>
<ellipse fill="none" stroke="black" cx="117.55" cy="-115.6" rx="28.7" ry="28.7"/>
<text text-anchor="middle" x="117.55" y="-111.9" font-family="Times,serif" font-size="14.00">x[2]</text>
</g>
<!-- n140592532423056&#45;&#45;n140592673068880 -->
<g id="edge2" class="edge">
<title>n140592532423056&#45;&#45;n140592673068880</title>
<path fill="none" stroke="black" d="M102.96,-90.97C92.45,-73.94 78.51,-51.35 69.08,-36.06"/>
<text text-anchor="middle" x="92.55" y="-57.8" font-family="Times,serif" font-size="14.00">1</text>
</g>
<!-- n140592532423056&#45;&#45;n140592673067728 -->
<g id="edge1" class="edge">
<title>n140592532423056&#45;&#45;n140592673067728</title>
<path fill="none" stroke="black" stroke-dasharray="5,2" d="M121.27,-87.2C123.51,-70.76 126.28,-50.35 128.21,-36.17"/>
<text text-anchor="middle" x="130.55" y="-57.8" font-family="Times,serif" font-size="14.00">0</text>
</g>
<!-- n140592532423248 -->
<g id="node4" class="node">
<title>n140592532423248</title>
<ellipse fill="none" stroke="black" cx="71.55" cy="-223.79" rx="28.7" ry="28.7"/>
<text text-anchor="middle" x="71.55" y="-220.09" font-family="Times,serif" font-size="14.00">x[1]</text>
</g>
<!-- n140592532423248&#45;&#45;n140592673068880 -->
<g id="edge3" class="edge">
<title>n140592532423248&#45;&#45;n140592673068880</title>
<path fill="none" stroke="black" stroke-dasharray="5,2" d="M69.77,-194.88C67.03,-152.04 61.89,-71.34 59.64,-36.14"/>
<text text-anchor="middle" x="70.55" y="-111.9" font-family="Times,serif" font-size="14.00">0</text>
</g>
<!-- n140592532423248&#45;&#45;n140592532423056 -->
<g id="edge4" class="edge">
<title>n140592532423248&#45;&#45;n140592532423056</title>
<path fill="none" stroke="black" d="M82.57,-197.36C89.8,-180.67 99.22,-158.92 106.46,-142.19"/>
<text text-anchor="middle" x="101.55" y="-165.99" font-family="Times,serif" font-size="14.00">1</text>
</g>
<!-- n140592532422800 -->
<g id="node5" class="node">
<title>n140592532422800</title>
<ellipse fill="none" stroke="black" cx="30.55" cy="-333.94" rx="30.59" ry="30.59"/>
<text text-anchor="middle" x="30.55" y="-330.24" font-family="Times,serif" font-size="14.00">Q[2]</text>
</g>
<!-- n140592532422800&#45;&#45;n140592673068880 -->
<g id="edge6" class="edge">
<title>n140592532422800&#45;&#45;n140592673068880</title>
<path fill="none" stroke="black" d="M30.17,-303.33C30.06,-275.4 30.51,-232.39 33.55,-195.19 38.32,-136.69 49.78,-67.97 55.37,-36.43"/>
<text text-anchor="middle" x="42.55" y="-165.99" font-family="Times,serif" font-size="14.00">1</text>
</g>
<!-- n140592532422800&#45;&#45;n140592532423248 -->
<g id="edge5" class="edge">
<title>n140592532422800&#45;&#45;n140592532423248</title>
<path fill="none" stroke="black" stroke-dasharray="5,2" d="M41.11,-305.09C47.46,-288.31 55.51,-267.1 61.73,-250.69"/>
<text text-anchor="middle" x="57.55" y="-274.19" font-family="Times,serif" font-size="14.00">0</text>
</g>
</g>
</svg>
