<?xml version="1.0" encoding="UTF-8" standalone="no"?>
<!DOCTYPE svg PUBLIC "-//W3C//DTD SVG 1.1//EN"
 "http://www.w3.org/Graphics/SVG/1.1/DTD/svg11.dtd">
<!-- Generated by graphviz version 2.49.3 (0)
 -->
<!-- Title: BDD Pages: 1 -->
<svg width="135pt" height="305pt"
 viewBox="0.00 0.00 135.00 305.00" xmlns="http://www.w3.org/2000/svg" xmlns:xlink="http://www.w3.org/1999/xlink">
<g id="graph0" class="graph" transform="scale(1 1) rotate(0) translate(4 301)">
<title>BDD</title>
<polygon fill="white" stroke="transparent" points="-4,4 -4,-301 131,-301 131,4 -4,4"/>
<!-- n140339723655248 -->
<g id="node1" class="node">
<title>n140339723655248</title>
<polygon fill="none" stroke="black" points="54,-36 0,-36 0,0 54,0 54,-36"/>
<text text-anchor="middle" x="27" y="-14.3" font-family="Times,serif" font-size="14.00">0</text>
</g>
<!-- n140339924301520 -->
<g id="node2" class="node">
<title>n140339924301520</title>
<polygon fill="none" stroke="black" points="127,-36 73,-36 73,0 127,0 127,-36"/>
<text text-anchor="middle" x="100" y="-14.3" font-family="Times,serif" font-size="14.00">1</text>
</g>
<!-- n140339708224336 -->
<g id="node3" class="node">
<title>n140339708224336</title>
<ellipse fill="none" stroke="black" cx="61" cy="-105" rx="18" ry="18"/>
<text text-anchor="middle" x="61" y="-101.3" font-family="Times,serif" font-size="14.00">c</text>
</g>
<!-- n140339708224336&#45;&#45;n140339723655248 -->
<g id="edge1" class="edge">
<title>n140339708224336&#45;&#45;n140339723655248</title>
<path fill="none" stroke="black" stroke-dasharray="5,2" d="M54.6,-88.01C48.68,-73.2 39.89,-51.23 33.83,-36.08"/>
<text text-anchor="middle" x="51" y="-57.8" font-family="Times,serif" font-size="14.00">0</text>
</g>
<!-- n140339708224336&#45;&#45;n140339924301520 -->
<g id="edge2" class="edge">
<title>n140339708224336&#45;&#45;n140339924301520</title>
<path fill="none" stroke="black" d="M68.15,-88.41C74.93,-73.65 85.08,-51.53 92.09,-36.25"/>
<text text-anchor="middle" x="87" y="-57.8" font-family="Times,serif" font-size="14.00">1</text>
</g>
<!-- n140339708224400 -->
<g id="node4" class="node">
<title>n140339708224400</title>
<ellipse fill="none" stroke="black" cx="43" cy="-192" rx="18" ry="18"/>
<text text-anchor="middle" x="43" y="-188.3" font-family="Times,serif" font-size="14.00">b</text>
</g>
<!-- n140339708224400&#45;&#45;n140339723655248 -->
<g id="edge3" class="edge">
<title>n140339708224400&#45;&#45;n140339723655248</title>
<path fill="none" stroke="black" stroke-dasharray="5,2" d="M37.12,-174.78C32.51,-161.16 26.48,-141.09 24,-123 19.83,-92.58 22.52,-56.7 24.8,-36.02"/>
<text text-anchor="middle" x="29" y="-101.3" font-family="Times,serif" font-size="14.00">0</text>
</g>
<!-- n140339708224400&#45;&#45;n140339708224336 -->
<g id="edge4" class="edge">
<title>n140339708224400&#45;&#45;n140339708224336</title>
<path fill="none" stroke="black" d="M46.56,-174.21C49.71,-159.31 54.3,-137.65 57.45,-122.76"/>
<text text-anchor="middle" x="58" y="-144.8" font-family="Times,serif" font-size="14.00">1</text>
</g>
<!-- n140339708224656 -->
<g id="node5" class="node">
<title>n140339708224656</title>
<ellipse fill="none" stroke="black" cx="97" cy="-192" rx="18" ry="18"/>
<text text-anchor="middle" x="97" y="-188.3" font-family="Times,serif" font-size="14.00">b</text>
</g>
<!-- n140339708224656&#45;&#45;n140339924301520 -->
<g id="edge6" class="edge">
<title>n140339708224656&#45;&#45;n140339924301520</title>
<path fill="none" stroke="black" d="M97.3,-173.88C97.87,-140.91 99.13,-68.97 99.7,-36.05"/>
<text text-anchor="middle" x="103" y="-101.3" font-family="Times,serif" font-size="14.00">1</text>
</g>
<!-- n140339708224656&#45;&#45;n140339708224336 -->
<g id="edge5" class="edge">
<title>n140339708224656&#45;&#45;n140339708224336</title>
<path fill="none" stroke="black" stroke-dasharray="5,2" d="M90.23,-175.01C83.79,-159.82 74.17,-137.09 67.74,-121.92"/>
<text text-anchor="middle" x="86" y="-144.8" font-family="Times,serif" font-size="14.00">0</text>
</g>
<!-- n140339708223952 -->
<g id="node6" class="node">
<title>n140339708223952</title>
<ellipse fill="none" stroke="black" cx="69" cy="-279" rx="18" ry="18"/>
<text text-anchor="middle" x="69" y="-275.3" font-family="Times,serif" font-size="14.00">a</text>
</g>
<!-- n140339708223952&#45;&#45;n140339708224400 -->
<g id="edge7" class="edge">
<title>n140339708223952&#45;&#45;n140339708224400</title>
<path fill="none" stroke="black" stroke-dasharray="5,2" d="M63.99,-261.61C59.38,-246.56 52.6,-224.37 48,-209.34"/>
<text text-anchor="middle" x="62" y="-231.8" font-family="Times,serif" font-size="14.00">0</text>
</g>
<!-- n140339708223952&#45;&#45;n140339708224656 -->
<g id="edge8" class="edge">
<title>n140339708223952&#45;&#45;n140339708224656</title>
<path fill="none" stroke="black" d="M74.4,-261.61C79.36,-246.56 86.66,-224.37 91.62,-209.34"/>
<text text-anchor="middle" x="89" y="-231.8" font-family="Times,serif" font-size="14.00">1</text>
</g>
</g>
</svg>
