<?xml version="1.0" encoding="UTF-8" standalone="no"?>
<!DOCTYPE svg PUBLIC "-//W3C//DTD SVG 1.1//EN"
 "http://www.w3.org/Graphics/SVG/1.1/DTD/svg11.dtd">
<!-- Generated by graphviz version 2.49.3 (0)
 -->
<!-- Title: BDD Pages: 1 -->
<svg width="164pt" height="369pt"
 viewBox="0.00 0.00 163.60 368.58" xmlns="http://www.w3.org/2000/svg" xmlns:xlink="http://www.w3.org/1999/xlink">
<g id="graph0" class="graph" transform="scale(1 1) rotate(0) translate(4 364.58)">
<title>BDD</title>
<polygon fill="white" stroke="transparent" points="-4,4 -4,-364.58 159.6,-364.58 159.6,4 -4,4"/>
<!-- n140093259424208 -->
<g id="node1" class="node">
<title>n140093259424208</title>
<polygon fill="none" stroke="black" points="83.6,-36 29.6,-36 29.6,0 83.6,0 83.6,-36"/>
<text text-anchor="middle" x="56.6" y="-14.3" font-family="Times,serif" font-size="14.00">0</text>
</g>
<!-- n140093260396240 -->
<g id="node2" class="node">
<title>n140093260396240</title>
<polygon fill="none" stroke="black" points="155.6,-36 101.6,-36 101.6,0 155.6,0 155.6,-36"/>
<text text-anchor="middle" x="128.6" y="-14.3" font-family="Times,serif" font-size="14.00">1</text>
</g>
<!-- n140093243541648 -->
<g id="node3" class="node">
<title>n140093243541648</title>
<ellipse fill="none" stroke="black" cx="115.6" cy="-115.6" rx="28.7" ry="28.7"/>
<text text-anchor="middle" x="115.6" y="-111.9" font-family="Times,serif" font-size="14.00">x[3]</text>
</g>
<!-- n140093243541648&#45;&#45;n140093259424208 -->
<g id="edge2" class="edge">
<title>n140093243541648&#45;&#45;n140093259424208</title>
<path fill="none" stroke="black" d="M101.01,-90.97C90.5,-73.94 76.56,-51.35 67.13,-36.06"/>
<text text-anchor="middle" x="90.6" y="-57.8" font-family="Times,serif" font-size="14.00">1</text>
</g>
<!-- n140093243541648&#45;&#45;n140093260396240 -->
<g id="edge1" class="edge">
<title>n140093243541648&#45;&#45;n140093260396240</title>
<path fill="none" stroke="black" stroke-dasharray="5,2" d="M119.32,-87.2C121.56,-70.76 124.33,-50.35 126.26,-36.17"/>
<text text-anchor="middle" x="128.6" y="-57.8" font-family="Times,serif" font-size="14.00">0</text>
</g>
<!-- n140093243541840 -->
<g id="node4" class="node">
<title>n140093243541840</title>
<ellipse fill="none" stroke="black" cx="69.6" cy="-223.79" rx="28.7" ry="28.7"/>
<text text-anchor="middle" x="69.6" y="-220.09" font-family="Times,serif" font-size="14.00">x[2]</text>
</g>
<!-- n140093243541840&#45;&#45;n140093259424208 -->
<g id="edge3" class="edge">
<title>n140093243541840&#45;&#45;n140093259424208</title>
<path fill="none" stroke="black" stroke-dasharray="5,2" d="M67.82,-194.88C65.08,-152.04 59.94,-71.34 57.69,-36.14"/>
<text text-anchor="middle" x="68.6" y="-111.9" font-family="Times,serif" font-size="14.00">0</text>
</g>
<!-- n140093243541840&#45;&#45;n140093243541648 -->
<g id="edge4" class="edge">
<title>n140093243541840&#45;&#45;n140093243541648</title>
<path fill="none" stroke="black" d="M80.62,-197.36C87.85,-180.67 97.27,-158.92 104.51,-142.19"/>
<text text-anchor="middle" x="99.6" y="-165.99" font-family="Times,serif" font-size="14.00">1</text>
</g>
<!-- n140093255216464 -->
<g id="node5" class="node">
<title>n140093255216464</title>
<ellipse fill="none" stroke="black" cx="28.6" cy="-331.99" rx="28.7" ry="28.7"/>
<text text-anchor="middle" x="28.6" y="-328.29" font-family="Times,serif" font-size="14.00">x[1]</text>
</g>
<!-- n140093255216464&#45;&#45;n140093259424208 -->
<g id="edge6" class="edge">
<title>n140093255216464&#45;&#45;n140093259424208</title>
<path fill="none" stroke="black" d="M28.25,-303.37C28.13,-275.9 28.54,-232.56 31.6,-195.19 36.38,-136.69 47.83,-67.97 53.42,-36.43"/>
<text text-anchor="middle" x="40.6" y="-165.99" font-family="Times,serif" font-size="14.00">1</text>
</g>
<!-- n140093255216464&#45;&#45;n140093243541840 -->
<g id="edge5" class="edge">
<title>n140093255216464&#45;&#45;n140093243541840</title>
<path fill="none" stroke="black" stroke-dasharray="5,2" d="M38.63,-305.01C44.98,-288.55 53.17,-267.35 59.53,-250.87"/>
<text text-anchor="middle" x="55.6" y="-274.19" font-family="Times,serif" font-size="14.00">0</text>
</g>
</g>
</svg>
