<?xml version="1.0" encoding="UTF-8" standalone="no"?>
<!DOCTYPE svg PUBLIC "-//W3C//DTD SVG 1.1//EN"
 "http://www.w3.org/Graphics/SVG/1.1/DTD/svg11.dtd">
<!-- Generated by graphviz version 2.49.3 (0)
 -->
<!-- Title: BDD Pages: 1 -->
<svg width="296pt" height="485pt"
 viewBox="0.00 0.00 296.43 484.58" xmlns="http://www.w3.org/2000/svg" xmlns:xlink="http://www.w3.org/1999/xlink">
<g id="graph0" class="graph" transform="scale(1 1) rotate(0) translate(4 480.58)">
<title>BDD</title>
<polygon fill="white" stroke="transparent" points="-4,4 -4,-480.58 292.43,-480.58 292.43,4 -4,4"/>
<!-- n139924801396368 -->
<g id="node1" class="node">
<title>n139924801396368</title>
<polygon fill="none" stroke="black" points="152.83,-36 98.83,-36 98.83,0 152.83,0 152.83,-36"/>
<text text-anchor="middle" x="125.83" y="-14.3" font-family="Times,serif" font-size="14.00">0</text>
</g>
<!-- n139925155943440 -->
<g id="node2" class="node">
<title>n139925155943440</title>
<polygon fill="none" stroke="black" points="260.83,-36 206.83,-36 206.83,0 260.83,0 260.83,-36"/>
<text text-anchor="middle" x="233.83" y="-14.3" font-family="Times,serif" font-size="14.00">1</text>
</g>
<!-- n139924663928976 -->
<g id="node3" class="node">
<title>n139924663928976</title>
<ellipse fill="none" stroke="black" cx="91.83" cy="-115.6" rx="28.7" ry="28.7"/>
<text text-anchor="middle" x="91.83" y="-111.9" font-family="Times,serif" font-size="14.00">x[2]</text>
</g>
<!-- n139924663928976&#45;&#45;n139924801396368 -->
<g id="edge2" class="edge">
<title>n139924663928976&#45;&#45;n139924801396368</title>
<path fill="none" stroke="black" d="M90.63,-86.93C91.05,-76.3 92.65,-64.26 96.83,-54 99.45,-47.57 103.7,-41.42 108.14,-36.13"/>
<text text-anchor="middle" x="101.83" y="-57.8" font-family="Times,serif" font-size="14.00">1</text>
</g>
<!-- n139924663928976&#45;&#45;n139925155943440 -->
<g id="edge1" class="edge">
<title>n139924663928976&#45;&#45;n139925155943440</title>
<path fill="none" stroke="black" stroke-dasharray="5,2" d="M115.28,-98.81C140.96,-81.52 182,-53.89 208.43,-36.1"/>
<text text-anchor="middle" x="183.83" y="-57.8" font-family="Times,serif" font-size="14.00">0</text>
</g>
<!-- n139924663929552 -->
<g id="node4" class="node">
<title>n139924663929552</title>
<ellipse fill="none" stroke="black" cx="46.83" cy="-223.79" rx="28.7" ry="28.7"/>
<text text-anchor="middle" x="46.83" y="-220.09" font-family="Times,serif" font-size="14.00">x[1]</text>
</g>
<!-- n139924663929552&#45;&#45;n139924801396368 -->
<g id="edge3" class="edge">
<title>n139924663929552&#45;&#45;n139924801396368</title>
<path fill="none" stroke="black" stroke-dasharray="5,2" d="M39.52,-196.09C33.21,-167.61 27.44,-121.89 43.83,-87 55.08,-63.06 79.35,-44.65 98.58,-33.06"/>
<text text-anchor="middle" x="48.83" y="-111.9" font-family="Times,serif" font-size="14.00">0</text>
</g>
<!-- n139924663929552&#45;&#45;n139924663928976 -->
<g id="edge4" class="edge">
<title>n139924663929552&#45;&#45;n139924663928976</title>
<path fill="none" stroke="black" d="M57.72,-197.09C64.75,-180.51 73.85,-159.04 80.88,-142.44"/>
<text text-anchor="middle" x="76.83" y="-165.99" font-family="Times,serif" font-size="14.00">1</text>
</g>
<!-- n139924663929168 -->
<g id="node5" class="node">
<title>n139924663929168</title>
<ellipse fill="none" stroke="black" cx="46.83" cy="-333.94" rx="30.59" ry="30.59"/>
<text text-anchor="middle" x="46.83" y="-330.24" font-family="Times,serif" font-size="14.00">Q[2]</text>
</g>
<!-- n139924663929168&#45;&#45;n139924801396368 -->
<g id="edge6" class="edge">
<title>n139924663929168&#45;&#45;n139924801396368</title>
<path fill="none" stroke="black" d="M31.27,-307.51C22.81,-292.15 13.19,-271.85 8.83,-252.39 -7.36,-180.14 0.29,-155.32 28.83,-87 35.72,-70.5 38.18,-65.54 51.83,-54 65.5,-42.44 83.64,-33.78 98.54,-27.97"/>
<text text-anchor="middle" x="8.83" y="-165.99" font-family="Times,serif" font-size="14.00">1</text>
</g>
<!-- n139924663929168&#45;&#45;n139924663929552 -->
<g id="edge5" class="edge">
<title>n139924663929168&#45;&#45;n139924663929552</title>
<path fill="none" stroke="black" stroke-dasharray="5,2" d="M46.83,-303.39C46.83,-287.5 46.83,-268.03 46.83,-252.45"/>
<text text-anchor="middle" x="51.83" y="-274.19" font-family="Times,serif" font-size="14.00">0</text>
</g>
<!-- n139924663929360 -->
<g id="node6" class="node">
<title>n139924663929360</title>
<ellipse fill="none" stroke="black" cx="259.83" cy="-115.6" rx="28.7" ry="28.7"/>
<text text-anchor="middle" x="259.83" y="-111.9" font-family="Times,serif" font-size="14.00">x[2]</text>
</g>
<!-- n139924663929360&#45;&#45;n139924801396368 -->
<g id="edge7" class="edge">
<title>n139924663929360&#45;&#45;n139924801396368</title>
<path fill="none" stroke="black" stroke-dasharray="5,2" d="M245.96,-90.49C237.89,-78.21 226.76,-63.83 213.83,-54 195.77,-40.27 171.61,-31.17 153.17,-25.7"/>
<text text-anchor="middle" x="233.83" y="-57.8" font-family="Times,serif" font-size="14.00">0</text>
</g>
<!-- n139924663929360&#45;&#45;n139925155943440 -->
<g id="edge8" class="edge">
<title>n139924663929360&#45;&#45;n139925155943440</title>
<path fill="none" stroke="black" d="M254.84,-87.24C252.69,-76.76 249.96,-64.74 246.83,-54 245.13,-48.15 242.92,-41.88 240.81,-36.28"/>
<text text-anchor="middle" x="254.83" y="-57.8" font-family="Times,serif" font-size="14.00">1</text>
</g>
<!-- n139924800788944 -->
<g id="node7" class="node">
<title>n139924800788944</title>
<ellipse fill="none" stroke="black" cx="202.83" cy="-223.79" rx="28.7" ry="28.7"/>
<text text-anchor="middle" x="202.83" y="-220.09" font-family="Times,serif" font-size="14.00">x[1]</text>
</g>
<!-- n139924800788944&#45;&#45;n139924801396368 -->
<g id="edge10" class="edge">
<title>n139924800788944&#45;&#45;n139924801396368</title>
<path fill="none" stroke="black" d="M199.61,-195.28C194.64,-160.58 182.94,-99.9 157.83,-54 154.35,-47.64 149.49,-41.52 144.59,-36.22"/>
<text text-anchor="middle" x="193.83" y="-111.9" font-family="Times,serif" font-size="14.00">1</text>
</g>
<!-- n139924800788944&#45;&#45;n139924663929360 -->
<g id="edge9" class="edge">
<title>n139924800788944&#45;&#45;n139924663929360</title>
<path fill="none" stroke="black" stroke-dasharray="5,2" d="M216.05,-198.16C225.26,-181.01 237.49,-158.22 246.68,-141.09"/>
<text text-anchor="middle" x="238.83" y="-165.99" font-family="Times,serif" font-size="14.00">0</text>
</g>
<!-- n139924800782992 -->
<g id="node8" class="node">
<title>n139924800782992</title>
<ellipse fill="none" stroke="black" cx="126.83" cy="-223.79" rx="28.7" ry="28.7"/>
<text text-anchor="middle" x="126.83" y="-220.09" font-family="Times,serif" font-size="14.00">x[1]</text>
</g>
<!-- n139924800782992&#45;&#45;n139924801396368 -->
<g id="edge12" class="edge">
<title>n139924800782992&#45;&#45;n139924801396368</title>
<path fill="none" stroke="black" d="M134.53,-196.14C143.06,-162.58 154.18,-103.34 142.83,-54 141.44,-47.94 138.85,-41.72 136.11,-36.23"/>
<text text-anchor="middle" x="151.83" y="-111.9" font-family="Times,serif" font-size="14.00">1</text>
</g>
<!-- n139924800782992&#45;&#45;n139924663928976 -->
<g id="edge11" class="edge">
<title>n139924800782992&#45;&#45;n139924663928976</title>
<path fill="none" stroke="black" stroke-dasharray="5,2" d="M118.09,-196.27C112.74,-180.05 105.93,-159.37 100.58,-143.15"/>
<text text-anchor="middle" x="115.83" y="-165.99" font-family="Times,serif" font-size="14.00">0</text>
</g>
<!-- n139924800798672 -->
<g id="node9" class="node">
<title>n139924800798672</title>
<ellipse fill="none" stroke="black" cx="126.83" cy="-333.94" rx="30.59" ry="30.59"/>
<text text-anchor="middle" x="126.83" y="-330.24" font-family="Times,serif" font-size="14.00">Q[2]</text>
</g>
<!-- n139924800798672&#45;&#45;n139924800788944 -->
<g id="edge13" class="edge">
<title>n139924800798672&#45;&#45;n139924800788944</title>
<path fill="none" stroke="black" stroke-dasharray="5,2" d="M144.08,-308.4C156.87,-290.2 174.18,-265.57 186.69,-247.76"/>
<text text-anchor="middle" x="173.83" y="-274.19" font-family="Times,serif" font-size="14.00">0</text>
</g>
<!-- n139924800798672&#45;&#45;n139924800782992 -->
<g id="edge14" class="edge">
<title>n139924800798672&#45;&#45;n139924800782992</title>
<path fill="none" stroke="black" d="M126.83,-303.39C126.83,-287.5 126.83,-268.03 126.83,-252.45"/>
<text text-anchor="middle" x="131.83" y="-274.19" font-family="Times,serif" font-size="14.00">1</text>
</g>
<!-- n139924800501456 -->
<g id="node10" class="node">
<title>n139924800501456</title>
<ellipse fill="none" stroke="black" cx="85.83" cy="-446.03" rx="30.59" ry="30.59"/>
<text text-anchor="middle" x="85.83" y="-442.33" font-family="Times,serif" font-size="14.00">Q[1]</text>
</g>
<!-- n139924800501456&#45;&#45;n139924663929168 -->
<g id="edge15" class="edge">
<title>n139924800501456&#45;&#45;n139924663929168</title>
<path fill="none" stroke="black" stroke-dasharray="5,2" d="M75.89,-416.97C70.02,-400.4 62.62,-379.51 56.76,-362.95"/>
<text text-anchor="middle" x="72.83" y="-386.28" font-family="Times,serif" font-size="14.00">0</text>
</g>
<!-- n139924800501456&#45;&#45;n139924800798672 -->
<g id="edge16" class="edge">
<title>n139924800501456&#45;&#45;n139924800798672</title>
<path fill="none" stroke="black" d="M96.18,-417.25C102.39,-400.56 110.27,-379.4 116.49,-362.71"/>
<text text-anchor="middle" x="112.83" y="-386.28" font-family="Times,serif" font-size="14.00">1</text>
</g>
</g>
</svg>
