<?xml version="1.0" encoding="UTF-8" standalone="no"?>
<!DOCTYPE svg PUBLIC "-//W3C//DTD SVG 1.1//EN"
 "http://www.w3.org/Graphics/SVG/1.1/DTD/svg11.dtd">
<!-- Generated by graphviz version 2.49.3 (0)
 -->
<!-- Title: BDD Pages: 1 -->
<svg width="147pt" height="305pt"
 viewBox="0.00 0.00 147.00 305.00" xmlns="http://www.w3.org/2000/svg" xmlns:xlink="http://www.w3.org/1999/xlink">
<g id="graph0" class="graph" transform="scale(1 1) rotate(0) translate(4 301)">
<title>BDD</title>
<polygon fill="white" stroke="transparent" points="-4,4 -4,-301 143,-301 143,4 -4,4"/>
<!-- n140223642298192 -->
<g id="node1" class="node">
<title>n140223642298192</title>
<polygon fill="none" stroke="black" points="139,-36 85,-36 85,0 139,0 139,-36"/>
<text text-anchor="middle" x="112" y="-14.3" font-family="Times,serif" font-size="14.00">0</text>
</g>
<!-- n140223642251088 -->
<g id="node2" class="node">
<title>n140223642251088</title>
<polygon fill="none" stroke="black" points="54,-36 0,-36 0,0 54,0 54,-36"/>
<text text-anchor="middle" x="27" y="-14.3" font-family="Times,serif" font-size="14.00">1</text>
</g>
<!-- n140223575300944 -->
<g id="node3" class="node">
<title>n140223575300944</title>
<ellipse fill="none" stroke="black" cx="29" cy="-105" rx="18" ry="18"/>
<text text-anchor="middle" x="29" y="-101.3" font-family="Times,serif" font-size="14.00">c</text>
</g>
<!-- n140223575300944&#45;&#45;n140223642298192 -->
<g id="edge1" class="edge">
<title>n140223575300944&#45;&#45;n140223642298192</title>
<path fill="none" stroke="black" stroke-dasharray="5,2" d="M41.25,-91.46C55.5,-76.87 79.11,-52.68 95.1,-36.31"/>
<text text-anchor="middle" x="80" y="-57.8" font-family="Times,serif" font-size="14.00">0</text>
</g>
<!-- n140223575300944&#45;&#45;n140223642251088 -->
<g id="edge2" class="edge">
<title>n140223575300944&#45;&#45;n140223642251088</title>
<path fill="none" stroke="black" d="M20.88,-88.76C18.12,-82.77 15.38,-75.73 14,-69 11.73,-57.93 14.84,-45.64 18.59,-36.02"/>
<text text-anchor="middle" x="19" y="-57.8" font-family="Times,serif" font-size="14.00">1</text>
</g>
<!-- n140223642122320 -->
<g id="node4" class="node">
<title>n140223642122320</title>
<ellipse fill="none" stroke="black" cx="83" cy="-105" rx="18" ry="18"/>
<text text-anchor="middle" x="83" y="-101.3" font-family="Times,serif" font-size="14.00">c</text>
</g>
<!-- n140223642122320&#45;&#45;n140223642298192 -->
<g id="edge4" class="edge">
<title>n140223642122320&#45;&#45;n140223642298192</title>
<path fill="none" stroke="black" d="M88.59,-87.61C93.63,-72.85 101.01,-51.22 106.13,-36.21"/>
<text text-anchor="middle" x="104" y="-57.8" font-family="Times,serif" font-size="14.00">1</text>
</g>
<!-- n140223642122320&#45;&#45;n140223642251088 -->
<g id="edge3" class="edge">
<title>n140223642122320&#45;&#45;n140223642251088</title>
<path fill="none" stroke="black" stroke-dasharray="5,2" d="M69.31,-93.15C61.93,-86.75 53.11,-78.13 47,-69 40.24,-58.9 35.19,-46.16 31.85,-36.07"/>
<text text-anchor="middle" x="52" y="-57.8" font-family="Times,serif" font-size="14.00">0</text>
</g>
<!-- n140223642123344 -->
<g id="node5" class="node">
<title>n140223642123344</title>
<ellipse fill="none" stroke="black" cx="66" cy="-192" rx="18" ry="18"/>
<text text-anchor="middle" x="66" y="-188.3" font-family="Times,serif" font-size="14.00">b</text>
</g>
<!-- n140223642123344&#45;&#45;n140223575300944 -->
<g id="edge5" class="edge">
<title>n140223642123344&#45;&#45;n140223575300944</title>
<path fill="none" stroke="black" stroke-dasharray="5,2" d="M59.04,-175.01C52.43,-159.82 42.53,-137.09 35.93,-121.92"/>
<text text-anchor="middle" x="54" y="-144.8" font-family="Times,serif" font-size="14.00">0</text>
</g>
<!-- n140223642123344&#45;&#45;n140223642122320 -->
<g id="edge6" class="edge">
<title>n140223642123344&#45;&#45;n140223642122320</title>
<path fill="none" stroke="black" d="M69.36,-174.21C72.34,-159.31 76.67,-137.65 79.65,-122.76"/>
<text text-anchor="middle" x="80" y="-144.8" font-family="Times,serif" font-size="14.00">1</text>
</g>
<!-- n140223575301136 -->
<g id="node6" class="node">
<title>n140223575301136</title>
<ellipse fill="none" stroke="black" cx="120" cy="-192" rx="18" ry="18"/>
<text text-anchor="middle" x="120" y="-188.3" font-family="Times,serif" font-size="14.00">b</text>
</g>
<!-- n140223575301136&#45;&#45;n140223642298192 -->
<g id="edge8" class="edge">
<title>n140223575301136&#45;&#45;n140223642298192</title>
<path fill="none" stroke="black" d="M119.2,-173.88C117.67,-140.91 114.32,-68.97 112.79,-36.05"/>
<text text-anchor="middle" x="121" y="-101.3" font-family="Times,serif" font-size="14.00">1</text>
</g>
<!-- n140223575301136&#45;&#45;n140223642122320 -->
<g id="edge7" class="edge">
<title>n140223575301136&#45;&#45;n140223642122320</title>
<path fill="none" stroke="black" stroke-dasharray="5,2" d="M113.04,-175.01C106.43,-159.82 96.53,-137.09 89.93,-121.92"/>
<text text-anchor="middle" x="108" y="-144.8" font-family="Times,serif" font-size="14.00">0</text>
</g>
<!-- n140223576487824 -->
<g id="node7" class="node">
<title>n140223576487824</title>
<ellipse fill="none" stroke="black" cx="92" cy="-279" rx="18" ry="18"/>
<text text-anchor="middle" x="92" y="-275.3" font-family="Times,serif" font-size="14.00">a</text>
</g>
<!-- n140223576487824&#45;&#45;n140223642123344 -->
<g id="edge9" class="edge">
<title>n140223576487824&#45;&#45;n140223642123344</title>
<path fill="none" stroke="black" stroke-dasharray="5,2" d="M86.99,-261.61C82.38,-246.56 75.6,-224.37 71,-209.34"/>
<text text-anchor="middle" x="85" y="-231.8" font-family="Times,serif" font-size="14.00">0</text>
</g>
<!-- n140223576487824&#45;&#45;n140223575301136 -->
<g id="edge10" class="edge">
<title>n140223576487824&#45;&#45;n140223575301136</title>
<path fill="none" stroke="black" d="M97.4,-261.61C102.36,-246.56 109.66,-224.37 114.62,-209.34"/>
<text text-anchor="middle" x="112" y="-231.8" font-family="Times,serif" font-size="14.00">1</text>
</g>
</g>
</svg>
